# xmcd CD database file
#
# Track frame offsets:
#	150
#	30746
#	45113
#	72933
#	104196
#	138280
#	171767
#	197102
#	217859
#	247206
#	292441
#	309564
#
# Disc length: 4506 seconds
#
# Revision: 0
# Processed by: cddbd v1.5.2PL0 Copyright (c) Steve Scherf et al.
# Submitted via: CDex 1.50
#
DISCID=ba11980c
DTITLE=Uni Big Band Siegen - US!
DYEAR=2012
DGENRE=Jazz
TTITLE0=Ornithology
TTITLE1=Cute
TTITLE2=Splanky
TTITLE3=Laura
TTITLE4=Cheesecake
TTITLE5=Julian
TTITLE6=First Love Song
TTITLE7=Out of Nowhere
TTITLE8=Commencar de Novo
TTITLE9=Deadly Schmedley
TTITLE10=Us
TTITLE11=When You're Smiling
EXTD=YEAR: 2012
EXTT0=
EXTT1=
EXTT2=
EXTT3=
EXTT4=
EXTT5=
EXTT6=
EXTT7=
EXTT8=
EXTT9=
EXTT10=
EXTT11=
PLAYORDER=
